USFL
nRows=181
nColumns=2
inDegrees=yes
endheader
time	soleus_r	
2.68733	 31.141320	
2.74982	 31.106373	
2.81232	 31.146041	
2.87482	 31.130769	
2.93731	 31.115781	
2.99981	 31.135010	
3.0623	 31.121956	
3.1248	 31.062467	
3.1873	 31.061687	
3.24979	 31.111287	
3.31229	 31.119352	
3.37478	 31.122823	
3.43728	 31.116177	
3.49978	 31.126607	
3.56227	 31.147848	
3.62477	 31.254725	
3.68726	 31.218152	
3.74976	 31.124530	
3.81226	 31.077453	
3.87475	 31.137430	
3.93725	 31.057818	
3.99974	 31.110208	
4.06224	 31.077085	
4.12474	 31.074813	
4.18723	 31.125700	
4.24973	 31.063223	
4.31222	 31.024292	
4.37472	 31.064725	
4.43722	 31.024922	
4.49971	 31.037230	
4.56221	 31.073009	
4.6247	 31.094564	
4.6872	 31.154426	
4.7497	 31.161722	
4.81219	 31.191899	
4.87469	 31.210048	
4.93718	 31.278783	
4.99968	 31.266836	
5.06218	 31.264197	
5.12467	 31.176139	
5.18717	 31.125491	
5.24966	 31.023614	
5.31216	 30.914996	
5.37466	 30.954602	
5.43715	 30.776099	
5.49965	 30.928120	
5.56214	 30.861097	
5.62464	 28.084864	
5.68714	 28.183324	
5.74963	 28.215341	
5.81213	 28.063181	
5.87462	 28.026878	
5.93712	 28.033243	
5.99962	 28.055370	
6.06211	 28.154027	
6.12461	 28.058695	
6.1871	 28.201521	
6.2496	 28.203633	
6.3121	 28.270195	
6.37459	 28.379468	
6.43709	 28.381437	
6.49958	 28.403018	
6.56208	 28.187656	
6.62458	 28.214288	
6.68707	 28.160818	
6.74957	 28.039606	
6.81206	 28.049947	
6.87456	 23.923530	
6.93706	 23.762462	
6.99955	 23.665730	
7.06205	 23.524242	
7.12454	 23.465291	
7.18704	 23.472805	
7.24954	 23.448274	
7.31203	 23.567076	
7.37453	 23.582986	
7.43702	 23.595235	
7.49952	 23.533279	
7.56202	 18.956510	
7.62451	 18.961501	
7.68701	 18.972418	
7.7495	 18.906870	
7.812	 18.965347	
7.8745	 18.950945	
7.93699	 18.914198	
7.99949	 18.879610	
8.06198	 18.897415	
8.12448	 18.914176	
8.18698	 19.001414	
8.24947	 19.021847	
8.31197	 13.813121	
8.37446	 13.862007	
8.43696	 13.893464	
8.49946	 13.910414	
8.56195	 13.838485	
8.62445	 13.843704	
8.68694	 13.863199	
8.74944	 13.879346	
8.81194	 13.810552	
8.87443	 13.803564	
8.93693	 13.734170	
8.99942	 13.691817	
9.06192	 13.695346	
9.12442	 13.658703	
9.18691	 13.683016	
9.24941	 13.682564	
9.3119	 13.651774	
9.3744	 13.658031	
9.4369	 13.664842	
9.49939	 13.688859	
9.56189	 13.668908	
9.62438	 15.218557	
9.68688	 15.259503	
9.74938	 15.289415	
9.81187	 15.315448	
9.87437	 15.319716	
9.93686	 15.321462	
9.99936	 18.425369	
10.0619	 18.463445	
10.1244	 18.587087	
10.1868	 18.625439	
10.2493	 18.680531	
10.3118	 18.694994	
10.3743	 18.713784	
10.4368	 18.815141	
10.4993	 18.855862	
10.5618	 18.897547	
10.6243	 18.943897	
10.6868	 19.069584	
10.7493	 19.099212	
10.8118	 19.055389	
10.8743	 19.118715	
10.9368	 24.270015	
10.9993	 24.265157	
11.0618	 24.254201	
11.1243	 24.239854	
11.1868	 24.271677	
11.2493	 24.271965	
11.3118	 24.251526	
11.3743	 24.257747	
11.4368	 24.279372	
11.4993	 24.321747	
11.5618	 24.359622	
11.6243	 24.427354	
11.6868	 24.439071	
11.7492	 24.438354	
11.8117	 24.479830	
11.8742	 24.505819	
11.9367	 24.534351	
11.9992	 24.558540	
12.0617	 24.546558	
12.1242	 24.594071	
12.1867	 24.637961	
12.2492	 24.691709	
12.3117	 24.702472	
12.3742	 24.758826	
12.4367	 24.758906	
12.4992	 24.791159	
12.5617	 24.803160	
12.6242	 24.786417	
12.6867	 24.764483	
12.7492	 24.716767	
12.8117	 24.729202	
12.8742	 24.709004	
12.9367	 24.707286	
12.9992	 24.727017	
13.0617	 24.694251	
13.1242	 24.737346	
13.1867	 24.752027	
13.2492	 24.740291	
13.3116	 24.773635	
13.3741	 24.789491	
13.4366	 24.779072	
13.4991	 24.773778	
13.5616	 24.783536	
13.6241	 24.782946	
13.6866	 24.795374	
13.7491	 24.815945	
13.8116	 24.815504	
13.8741	 24.833526	
13.9366	 24.848749	
